<?xml version="1.0" encoding="UTF-8"?>
<svg width="552px" height="460px" viewBox="0 0 552 460" version="1.1" xmlns="http://www.w3.org/2000/svg" xmlns:xlink="http://www.w3.org/1999/xlink">
    <title>Education</title>
    <defs>
        <linearGradient x1="40.6829233%" y1="100%" x2="40.6829233%" y2="0%" id="linearGradient-1">
            <stop stop-color="#6C8FFF" offset="0%"></stop>
            <stop stop-color="#19ACFF" offset="100%"></stop>
        </linearGradient>
        <linearGradient x1="50%" y1="0%" x2="49.9814735%" y2="96.0335769%" id="linearGradient-2">
            <stop stop-color="#FFEB5E" offset="0%"></stop>
            <stop stop-color="#FFC400" offset="100%"></stop>
        </linearGradient>
        <linearGradient x1="50%" y1="0%" x2="49.7941497%" y2="96.0335769%" id="linearGradient-3">
            <stop stop-color="#FFEB5E" offset="0%"></stop>
            <stop stop-color="#FFC400" offset="100%"></stop>
        </linearGradient>
        <linearGradient x1="16.6989728%" y1="0%" x2="16.6989728%" y2="100%" id="linearGradient-4">
            <stop stop-color="#FF9C00" offset="0%"></stop>
            <stop stop-color="#FE5F00" offset="100%"></stop>
        </linearGradient>
        <linearGradient x1="16.6989728%" y1="0%" x2="16.6989728%" y2="100%" id="linearGradient-5">
            <stop stop-color="#FF9C00" offset="0%"></stop>
            <stop stop-color="#FE5F00" offset="100%"></stop>
        </linearGradient>
        <linearGradient x1="50%" y1="37.5%" x2="49.7941497%" y2="61.5083942%" id="linearGradient-6">
            <stop stop-color="#FFC400" offset="0%"></stop>
            <stop stop-color="#FFEB5E" offset="100%"></stop>
        </linearGradient>
        <linearGradient x1="16.6989728%" y1="0%" x2="16.6989728%" y2="100%" id="linearGradient-7">
            <stop stop-color="#03DB64" offset="0%"></stop>
            <stop stop-color="#87FFD3" offset="100%"></stop>
        </linearGradient>
    </defs>
    <g id="手机" stroke="none" stroke-width="1" fill="none" fill-rule="evenodd">
        <g id="works-mobile" transform="translate(-99.000000, -1000.000000)">
            <g id="Education" transform="translate(99.000000, 1000.000000)">
                <rect id="矩形备份-13" x="0" y="0" width="552" height="460"></rect>
                <g id="编组-3" transform="translate(33.800000, 42.933333)">
                    <rect id="矩形备份-15" fill="url(#linearGradient-1)" x="100.999505" y="246.866667" width="128.8" height="128.8" rx="16"></rect>
                    <path d="M218.699505,266.8 L236.299505,266.8 C245.412203,266.8 252.799505,274.187302 252.799505,283.3 L252.799505,418.966667 C252.799505,428.079365 245.412203,435.466667 236.299505,435.466667 L218.699505,435.466667 C209.586807,435.466667 202.199505,428.079365 202.199505,418.966667 L202.199505,283.3 C202.199505,274.187302 209.586807,266.8 218.699505,266.8 Z" id="矩形备份-16" fill="url(#linearGradient-2)" transform="translate(227.499505, 351.133333) rotate(-270.000000) translate(-227.499505, -351.133333) "></path>
                    <g id="编组-3备份-2" transform="translate(177.176805, 182.353849) rotate(-39.000000) translate(-177.176805, -182.353849) translate(153.410139, 158.587183)">
                        <circle id="椭圆形备份-3" fill="url(#linearGradient-3)" cx="23.7666667" cy="23.7666667" r="23.7666667"></circle>
                        <path d="M0,23 C0,36.5493859 10.6406991,47.5333333 23.7666667,47.5333333 C36.8926342,47.5333333 47.5333333,36.5493859 47.5333333,23 L0,23 Z" id="路径" fill="url(#linearGradient-4)"></path>
                    </g>
                    <circle id="椭圆形备份-4" fill="url(#linearGradient-5)" cx="334.066172" cy="277.533333" r="102.733333"></circle>
                    <path d="M335.299505,85.4880339 L370.472721,105.795299 C371.710325,106.509831 372.472721,107.830339 372.472721,109.259401 L372.472721,149.873932 C372.472721,151.302995 371.710325,152.623503 370.472721,153.338034 L335.299505,173.645299 C334.061901,174.359831 332.537109,174.359831 331.299505,173.645299 L296.126289,153.338034 C294.888685,152.623503 294.126289,151.302995 294.126289,149.873932 L294.126289,109.259401 C294.126289,107.830339 294.888685,106.509831 296.126289,105.795299 L331.299505,85.4880339 C332.537109,84.7735027 334.061901,84.7735027 335.299505,85.4880339 Z" id="多边形备份-2" fill="url(#linearGradient-1)" style="mix-blend-mode: multiply;"></path>
                    <path d="M410.505705,84.3333333 L383.878526,84.3333333 C381.400821,84.3333333 379.302074,82.4635429 379.081217,80.0010095 C376.879885,55.4503714 356.155509,36.1428571 330.999505,36.1428571 C305.843501,36.1428571 285.119125,55.4503714 282.917793,80.0010095 C282.698143,82.4635429 280.598189,84.3333333 278.121691,84.3333333 L251.493305,84.3333333 C248.689745,84.3333333 246.50531,81.9575429 246.675479,79.1637 C249.360765,35.060981 286.154619,0 330.999505,0 C375.844391,0 412.639452,35.060981 415.323531,79.1637 C415.4937,81.9575429 413.309265,84.3333333 410.505705,84.3333333" id="Fill-1备份" fill="url(#linearGradient-6)" transform="translate(330.999505, 42.166667) rotate(-180.000000) translate(-330.999505, -42.166667) "></path>
                    <path d="M227.876635,231.817284 L203.764969,231.817284 C200.228591,231.817284 197.192498,229.147379 196.905393,225.621317 C193.743799,186.798525 161.139324,156.17284 121.51367,156.17284 C81.8880151,156.17284 49.2818212,186.798525 46.1202273,225.621317 C45.8331222,229.147379 42.7987485,231.817284 39.2623707,231.817284 L15.150704,231.817284 C11.155302,231.817284 8.02637271,228.425319 8.2842515,224.440232 C12.0974192,165.30003 61.4261929,118.350618 121.51367,118.350618 C181.601146,118.350618 230.928201,165.30003 234.743088,224.440232 C235.000967,228.425319 231.870318,231.817284 227.876635,231.817284" id="Fill-1" fill="url(#linearGradient-7)" transform="translate(121.513666, 175.083951) rotate(-137.000000) translate(-121.513666, -175.083951) "></path>
                </g>
            </g>
        </g>
    </g>
</svg>