<svg xmlns="http://www.w3.org/2000/svg" xmlns:xlink="http://www.w3.org/1999/xlink" width="220" height="220" viewBox="0 0 220 220">
  <defs>
    <style>
      .cls-1, .cls-3 {
        fill-rule: evenodd;
      }

      .cls-1 {
        fill: url(#linear-gradient);
      }

      .cls-2 {
        fill: #231f20;
      }

      .cls-3 {
        fill: none;
        stroke: #050505;
        stroke-linecap: round;
        stroke-width: 4px;
      }
    </style>
    <linearGradient id="linear-gradient" x1="714.768" y1="201.25" x2="781.294" y2="18.469" gradientUnits="userSpaceOnUse">
      <stop offset="0" stop-color="#ffd002"/>
      <stop offset="0.993" stop-color="#fff244"/>
      <stop offset="1" stop-color="#fff244"/>
    </linearGradient>
  </defs>
  <g id="画板_5" data-name="画板 5">
    <g id="组_6_拷贝" data-name="组 6 拷贝">
      <path id="圆角矩形_2_拷贝_5" data-name="圆角矩形 2 拷贝 5" class="cls-1" d="M826.039,35.837s1.673,29.807,2.481,44.2c0.437,9.837,4,11.168,6.643,13.815a62.9,62.9,0,0,1-88.927,88.969c-3.1-3.1-6.864-4.205-12.762-4.546l-73.548-4.259a18.391,18.391,0,0,1,2-36.728l42.106,2.438c6.284,0.069,7.5-3.243,5.673-7.417A18.388,18.388,0,0,1,728.35,106.63c4.7,0.685,6.962.129,6.53-2.575a18.386,18.386,0,0,1,20.631-23.272c3.328,0.337,5.1-1.042,4.989-4.234a18.381,18.381,0,0,1,23.2-21.26c3.308,0.954,6.306-1.2,6.3-5.644-0.317-5.644-.66-11.745-0.66-11.745A18.376,18.376,0,1,1,826.039,35.837Z" transform="translate(-640)"/>
      <circle id="椭圆_1_拷贝_8" data-name="椭圆 1 拷贝 8" class="cls-2" cx="144.532" cy="133.5" r="3.156"/>
      <circle id="椭圆_1_拷贝_8-2" data-name="椭圆 1 拷贝 8" class="cls-2" cx="166.36" cy="133.5" r="3.171"/>
      <path id="形状_2_拷贝_2" data-name="形状 2 拷贝 2" class="cls-3" d="M790.524,153.047c4.365,2.063,9.108.561,11.577-4.982" transform="translate(-640)"/>
    </g>
  </g>
</svg>
