<svg xmlns="http://www.w3.org/2000/svg" xmlns:xlink="http://www.w3.org/1999/xlink" width="220" height="220" viewBox="0 0 220 220">
  <defs>
    <style>
      .cls-1, .cls-2, .cls-4 {
        fill-rule: evenodd;
      }

      .cls-1 {
        fill: url(#linear-gradient);
      }

      .cls-2, .cls-3 {
        fill: #231f20;
      }

      .cls-4 {
        fill: none;
        stroke: #050505;
        stroke-linecap: round;
        stroke-width: 4px;
      }
    </style>
    <linearGradient id="linear-gradient" x1="1351.038" y1="218" x2="1428.712" y2="4.594" gradientUnits="userSpaceOnUse">
      <stop offset="0" stop-color="#ffd002"/>
      <stop offset="0.993" stop-color="#fff244"/>
      <stop offset="1" stop-color="#fff244"/>
    </linearGradient>
  </defs>
  <g id="画板_7" data-name="画板 7">
    <g id="组_8_拷贝" data-name="组 8 拷贝">
      <path id="圆角矩形_2_拷贝" data-name="圆角矩形 2 拷贝" class="cls-1" d="M1455.33,28.5s-7.78,29.041-12.7,47.411c-2.08,7.4-1.75,13.052,2.99,15.88a13.97,13.97,0,0,1,8,12.633v48.618a64.92,64.92,0,1,1-129.84,0V122.218a13.965,13.965,0,0,1,13.96-13.97l12.63-2.206c10.02-2.135,11.05-6.806,8.34-18.207-5.93-22.119-15.89-59.337-15.89-59.337a18.972,18.972,0,1,1,36.65-9.827s8.68,32.427,14.49,54.119c3.33,10.444,6.71,10.214,10.33-.4l14.39-53.716A18.972,18.972,0,1,1,1455.33,28.5Z" transform="translate(-1280)"/>
      <path id="椭圆_1_拷贝_2" data-name="椭圆 1 拷贝 2" class="cls-2" d="M1352.53,141.485a3.252,3.252,0,1,1-3.25,3.251A3.253,3.253,0,0,1,1352.53,141.485Z" transform="translate(-1280)"/>
      <circle id="椭圆_1_拷贝_6" data-name="椭圆 1 拷贝 6" class="cls-3" cx="95.045" cy="144.75" r="3.265"/>
      <path id="形状_2" data-name="形状 2" class="cls-4" d="M1358.71,164.92c4.51,2.13,9.4.579,11.95-5.145" transform="translate(-1280)"/>
    </g>
  </g>
</svg>
