<svg version="1.2" xmlns="http://www.w3.org/2000/svg" viewBox="0 0 220 220" width="220" height="220">
	<title>hand8-svg</title>
	<defs>
		<linearGradient id="g1" x1="68.9" y1="217" x2="146.5" y2="3.8" gradientUnits="userSpaceOnUse">
			<stop offset="0" stop-color="#06db62"/>
			<stop offset="1" stop-color="#1bfda9"/>
		</linearGradient>
	</defs>
	<style>
		.s0 { fill: url(#g1) } 
		.s1 { fill: #231f20 } 
		.s2 { fill: none;stroke: #050505;stroke-linecap: round;stroke-width: 4 } 
	</style>
	<g id="画板_8">
		<g id="组_12_拷贝_2">
			<path id="圆角矩形_2_拷贝_11" fill-rule="evenodd" class="s0" d="m3.5 86.2c0-4.4 1.8-8.6 4.9-11.7 3.1-3.1 7.3-4.9 11.7-4.9 4.4 0 8.6 1.8 11.7 4.9 0 0 17.3 17.8 20.9 20.9 3.6 3.1 7.4 1.9 7.4-6.5v-68.6c0-4.4 1.7-8.6 4.8-11.7 3.1-3.1 7.3-4.8 11.7-4.8 4.4 0 8.6 1.7 11.7 4.8 3.1 3.1 4.9 7.3 4.9 11.7v60c0 4 2.2 4.6 5.1 2.8 1.9-1.4 4.2-2.4 6.6-2.9 2.3-0.5 4.8-0.5 7.2 0.1 2.3 0.6 4.5 1.6 6.4 3.2 1.9 1.5 3.5 3.4 4.5 5.6 2 2.6 4.4 3.9 6.9 2.5 1.9-0.8 3.9-1.3 6-1.4 2-0.1 4.1 0.2 6 0.9 2 0.6 3.8 1.6 5.4 2.9 1.5 1.4 2.8 3 3.8 4.8 3 2.2 5.3 2.5 8.5-0.4l23.9-23.9c3.1-3.1 7.3-4.9 11.7-4.9 4.4 0 8.6 1.8 11.7 4.9 3.1 3.1 4.9 7.3 4.9 11.7 0 4.4-1.8 8.6-4.9 11.7l-47.9 47.9c-5.3 5.5-5.3-0.5-5.3 14.5 0 15-6 29.4-16.6 40.1-10.6 10.6-25 16.6-40 16.6-15.1 0-29.5-6-40.1-16.6-10.6-10.7-16.6-25.1-16.6-40.1v-18.8c0-5.6-1.6-12.3-5.7-17.3-9.2-9.2-26.3-26.3-26.3-26.3-3.1-3.1-4.9-7.3-4.9-11.7z"/>
			<circle id="椭圆_1_拷贝_8" class="s1" cx="80.5" cy="146.3" r="2.8"/>
			<path id="椭圆_1_拷贝_8-2" fill-rule="evenodd" class="s1" d="m101.2 143.7q0.6 0.2 1 0.6 0.4 0.4 0.6 0.9 0.2 0.6 0.2 1.1c0 1.2-0.7 2.2-1.7 2.6-1.1 0.5-2.3 0.2-3.1-0.6-0.8-0.8-1.1-2-0.6-3 0.4-1.1 1.4-1.8 2.6-1.8q0.5 0 1 0.2z"/>
			<path id="形状_2_拷贝_2" class="s2" d="m85.9 163.9c3.9 1.9 8.2 0.5 10.4-4.5"/>
		</g>
	</g>
</svg>