<svg xmlns="http://www.w3.org/2000/svg" xmlns:xlink="http://www.w3.org/1999/xlink" width="220" height="220" viewBox="0 0 220 220">
  <defs>
    <style>
      .cls-1, .cls-3 {
        fill-rule: evenodd;
      }

      .cls-1 {
        fill: url(#linear-gradient);
      }

      .cls-2 {
        fill: #231f20;
      }

      .cls-3 {
        fill: none;
        stroke: #050505;
        stroke-linecap: round;
        stroke-width: 4px;
      }
    </style>
    <linearGradient id="linear-gradient" x1="1031.654" y1="207.875" x2="1103.288" y2="11.063" gradientUnits="userSpaceOnUse">
      <stop offset="0" stop-color="#ffd002"/>
      <stop offset="0.993" stop-color="#fff244"/>
      <stop offset="1" stop-color="#fff244"/>
    </linearGradient>
  </defs>
  <g id="画板_6" data-name="画板 6">
    <g id="组_11_拷贝" data-name="组 11 拷贝">
      <path id="圆角矩形_2_拷贝_14" data-name="圆角矩形 2 拷贝 14" class="cls-1" d="M1143.67,160.408a64.058,64.058,0,0,1-76.21,45.829c-0.48-.09-0.96-0.193-1.44-0.322l-13.79-3.7-27.72-7.428c-0.06-.015-0.11-0.038-0.17-0.054l-10.93-2.935a18.721,18.721,0,0,1-13.25-22.931c0.98-3.956.93-6.634-1.337-9.771a18.723,18.723,0,0,1-2.011-27.658c2.267-2.122,1.343-4.982-.536-7.2a18.711,18.711,0,0,1,1.158-26.471c2-2.006.032-3.8-1.838-6.51a18.716,18.716,0,0,1,17.064-32.263l27.9,7.486c0.05,0.013.1,0.019,0.15,0.032l27.35,7.329c4.4,1.18,11.75,1.107,10.53-6.124-3.43-12.584-8.99-33.011-8.99-33.011a18.716,18.716,0,1,1,36.12-9.826s10.85,39.843,16.41,60.24c1.69,6.212,8.41,16.594,12.37,22.347A63.826,63.826,0,0,1,1143.67,160.408Z" transform="translate(-960)"/>
      <circle id="椭圆_1_拷贝_8" data-name="椭圆 1 拷贝 8" class="cls-2" cx="93.735" cy="122.391" r="3.205"/>
      <circle id="椭圆_1_拷贝_8-2" data-name="椭圆 1 拷贝 8" class="cls-2" cx="115.175" cy="128.141" r="3.205"/>
      <path id="形状_2_拷贝_2" data-name="形状 2 拷贝 2" class="cls-3" d="M1054.46,143.186c3.75,3.178,8.81,2.951,12.69-1.848" transform="translate(-960)"/>
    </g>
  </g>
</svg>
