<svg xmlns="http://www.w3.org/2000/svg" xmlns:xlink="http://www.w3.org/1999/xlink" width="220" height="220" viewBox="0 0 220 220">
  <defs>
    <style>
      .cls-1, .cls-2, .cls-4 {
        fill-rule: evenodd;
      }

      .cls-1 {
        fill: url(#linear-gradient);
      }

      .cls-2, .cls-3 {
        fill: #231f20;
      }

      .cls-4 {
        fill: none;
        stroke: #050505;
        stroke-linecap: round;
        stroke-width: 4px;
      }
    </style>
    <linearGradient id="linear-gradient" x1="71.202" y1="217.594" x2="148.705" y2="4.656" gradientUnits="userSpaceOnUse">
      <stop offset="0" stop-color="#fe5900"/>
      <stop offset="1" stop-color="#ff9c00"/>
    </linearGradient>
  </defs>
  <g id="画板_3" data-name="画板 3">
    <g id="组_7_拷贝" data-name="组 7 拷贝">
      <path id="圆角矩形_2_拷贝_7" data-name="圆角矩形 2 拷贝 7" class="cls-1" d="M209.878,40.094s-14.9,55.584-22.148,82.592a150.563,150.563,0,0,0-3.859,32.9A62.06,62.06,0,0,1,78.154,199.65C66.821,191.132,57.9,187.463,45.7,184.389a49.934,49.934,0,0,1-34.148-25.761c-10.114-21.515,18.364-32.6,34.067-12.122a15.062,15.062,0,1,0-2.412-18.154c-14.79,16.629-39.694-1.439-31.553-16A49.9,49.9,0,0,1,89.24,98.6c4.722,3.333,8.277,1.944,6.636-4.625L85.3,54.619a18.143,18.143,0,0,1,35.057-9.365s1.754,6.524,3.554,13.222c1.323,3.575,3.678,3.873,3.85.334V22.781a18.138,18.138,0,0,1,36.275,0v36.5c-0.177,3.49,1.941,3.886,3.088.214l7.719-28.782A18.136,18.136,0,0,1,209.878,40.094Z"/>
      <path id="椭圆_1_拷贝_10" data-name="椭圆 1 拷贝 10" class="cls-2" d="M156.955,131.518a3.106,3.106,0,1,1-3.115,3.106A3.111,3.111,0,0,1,156.955,131.518Z"/>
      <circle id="椭圆_1_拷贝_10-2" data-name="椭圆 1 拷贝 10" class="cls-3" cx="135.422" cy="134.625" r="3.109"/>
      <path id="形状_2_拷贝_3" data-name="形状 2 拷贝 3" class="cls-4" d="M151.04,153.869c-4.308,2.031-8.99.552-11.426-4.9"/>
    </g>
  </g>
</svg>
