<?xml version="1.0" encoding="UTF-8"?>
<svg width="142px" height="91px" viewBox="0 0 142 91" version="1.1" xmlns="http://www.w3.org/2000/svg" xmlns:xlink="http://www.w3.org/1999/xlink">
    <title>编组 14</title>
    <defs>
        <linearGradient x1="49.7941497%" y1="-99.0277443%" x2="49.7941497%" y2="96.0335769%" id="linearGradient-1">
            <stop stop-color="#FFEB5E" offset="0%"></stop>
            <stop stop-color="#FFC400" offset="100%"></stop>
        </linearGradient>
    </defs>
    <g id="页面-1" stroke="none" stroke-width="1" fill="none" fill-rule="evenodd">
        <g id="Works" transform="translate(-119.000000, -1794.000000)">
            <g id="编组-14" transform="translate(119.500000, 1794.560487)">
                <path d="M37.5822476,0.240256572 C41.3165103,1.24084925 43.5325877,5.07920795 42.531995,8.81347067 L37.004,29.439 L110.5,29.4395135 C127.068542,29.4395135 140.5,42.870971 140.5,59.4395135 C140.5,76.008056 127.068542,89.4395135 110.5,89.4395135 L30.5,89.4395135 C13.9314575,89.4395135 0.5,76.008056 0.5,59.4395135 L0.499597997,39.541596 C0.177307106,38.7371963 -6.53850576e-16,37.8590611 -4.2862638e-16,36.9395135 C-1.59024259e-16,35.8387793 0.254063722,34.7973849 0.706748929,33.8707724 C1.39631766,31.3182895 3.728753,29.4395135 6.5,29.4395135 L7.995,29.439 L2.46800497,8.81347067 C1.48825797,5.15700509 3.59254928,1.40073568 7.18635318,0.306462021 L7.41775244,0.240256572 C11.1520152,-0.760336109 14.9903739,1.45574132 15.9909665,5.19000404 L15.9909665,5.19000404 L22.488,29.439 L22.511,29.439 L29.0090335,5.19000404 C30.0096261,1.45574132 33.8479848,-0.760336109 37.5822476,0.240256572 Z" id="形状结合" fill="url(#linearGradient-1)"></path>
                <circle id="椭圆形" fill="#000000" cx="18" cy="53.9395135" r="1.5"></circle>
                <circle id="椭圆形备份-2" fill="#000000" cx="31" cy="53.9395135" r="1.5"></circle>
                <path d="M26.0037291,61.191378 C23.9398307,61.8793442 21.1879661,61.191378 20.5,58.4395135" id="路径-3" stroke="#000000" stroke-linecap="round" stroke-linejoin="round"></path>
            </g>
        </g>
    </g>
</svg>